<?xml version="1.0" encoding="utf-8"?>
<!-- Generator: Adobe Illustrator 18.1.1, SVG Export Plug-In . SVG Version: 6.00 Build 0)  -->
<!DOCTYPE svg PUBLIC "-//W3C//DTD SVG 1.1//EN" "http://www.w3.org/Graphics/SVG/1.1/DTD/svg11.dtd">
<svg version="1.1" id="Layer_1" xmlns="http://www.w3.org/2000/svg" xmlns:xlink="http://www.w3.org/1999/xlink" x="0px" y="0px"
	 viewBox="0 0 75.4 75.4" enable-background="new 0 0 75.4 75.4" xml:space="preserve">
<g id="SznODy_1_">
	<g>
		<path fill-rule="evenodd" clip-rule="evenodd" d="M38.2,14.3c13.1,0,23.3,10.4,23.3,23.7c0,12.8-10.6,23-23.8,23
			c-12.9,0-23.1-10.5-23.1-23.7C14.6,24.5,25.1,14.3,38.2,14.3z M41.5,23.9c-2.4,0-4.5,0-6.8,0c0,3.5,0,6.9,0,10.4
			c-3.6,0-7,0-10.3,0c0,2.3,0,4.4,0,6.7c3.5,0,6.9,0,10.4,0c0,3.5,0,6.9,0,10.3c2.3,0,4.5,0,6.8,0c0-3.5,0-6.9,0-10.4
			c3.5,0,6.9,0,10.3,0c0-2.3,0-4.3,0-6.7c-3.5,0-6.9,0-10.5,0C41.5,30.6,41.5,27.3,41.5,23.9z"/>
	</g>
</g>
</svg>
