<?xml version="1.0" encoding="utf-8"?>
<!-- Generator: Adobe Illustrator 18.1.1, SVG Export Plug-In . SVG Version: 6.00 Build 0)  -->
<!DOCTYPE svg PUBLIC "-//W3C//DTD SVG 1.1//EN" "http://www.w3.org/Graphics/SVG/1.1/DTD/svg11.dtd">
<svg version="1.1" id="Layer_1" xmlns="http://www.w3.org/2000/svg" xmlns:xlink="http://www.w3.org/1999/xlink" x="0px" y="0px"
	 viewBox="0 0 75.4 75.4" enable-background="new 0 0 75.4 75.4" xml:space="preserve">
<g>
	<path d="M58.4,16.1H48h-9.2h-2.2h-9.2H17v10h0c0,0.1,0,0.3,0,0.4v2.9h15.2c1.6-1.1,3.6-1.8,5.7-1.8c2.1,0,4.1,0.7,5.7,1.8h7.7h7.1
		v-2.9c0-0.1,0-0.3,0-0.4h0V16.1z M46.4,26.1c0,0-0.1-0.1-0.1-0.1v-3.6c0-0.6,0.5-1.1,1.1-1.1h3.6c0.6,0,1.2,0.5,1.2,1.1v3.6
		c0,0,0,0.1-0.1,0.1H46.4z"/>
	<path d="M43.7,37.3c0-3.2-2.6-5.8-5.8-5.8c-3.2,0-5.8,2.6-5.8,5.8c0,3.2,2.6,5.8,5.8,5.8C41.1,43.2,43.7,40.5,43.7,37.3z"/>
	<path d="M47.7,37.3c0,5.4-4.4,9.8-9.8,9.8c-5.4,0-9.8-4.4-9.8-9.8c0-1.5,0.3-2.9,0.9-4.2H17v14.2c0,5.7,4.6,10.3,10.4,10.3H48
		c5.7,0,10.3-4.6,10.3-10.3V33.2H46.8C47.4,34.4,47.7,35.8,47.7,37.3z"/>
</g>
</svg>
