<?xml version="1.0" encoding="utf-8"?>
<!-- Generator: Adobe Illustrator 18.1.1, SVG Export Plug-In . SVG Version: 6.00 Build 0)  -->
<!DOCTYPE svg PUBLIC "-//W3C//DTD SVG 1.1//EN" "http://www.w3.org/Graphics/SVG/1.1/DTD/svg11.dtd">
<svg version="1.1" id="Layer_1" xmlns="http://www.w3.org/2000/svg" xmlns:xlink="http://www.w3.org/1999/xlink" x="0px" y="0px"
	 viewBox="0 0 75.4 75.4" enable-background="new 0 0 75.4 75.4" xml:space="preserve">
<path d="M37.7,13.8c-13.2,0-23.9,10.7-23.9,23.9c0,9.8,5.9,18.2,14.3,21.9c-0.1-1.7,0-3.7,0.4-5.5c0.5-1.9,3.1-13,3.1-13
	s-0.8-1.5-0.8-3.8c0-3.5,2.1-6.2,4.6-6.2c2.2,0,3.2,1.6,3.2,3.6c0,2.2-1.4,5.5-2.1,8.5c-0.6,2.5,1.3,4.6,3.8,4.6
	c4.5,0,7.6-5.8,7.6-12.7c0-5.2-3.5-9.2-9.9-9.2c-7.2,0-11.8,5.4-11.8,11.4c0,2.1,0.6,3.5,1.6,4.7c0.4,0.5,0.5,0.7,0.3,1.3
	c-0.1,0.4-0.4,1.5-0.5,1.9c-0.2,0.6-0.6,0.8-1.2,0.6c-3.3-1.4-4.9-5-4.9-9.1c0-6.8,5.7-14.9,17.1-14.9c9.1,0,15.1,6.6,15.1,13.7
	c0,9.4-5.2,16.4-12.9,16.4c-2.6,0-5-1.4-5.8-3c0,0-1.4,5.5-1.7,6.6c-0.5,1.8-1.5,3.7-2.4,5.1c2.1,0.6,4.4,1,6.8,1
	c13.2,0,23.9-10.7,23.9-23.9C61.6,24.5,50.9,13.8,37.7,13.8z"/>
</svg>
