<svg version="1.1" xmlns="http://www.w3.org/2000/svg" xmlns:xlink="http://www.w3.org/1999/xlink" viewBox="0 0 60 60">
    <title></title>
    <g>
        <path d="M50.39,17a8.07,8.07,0,0,1,7.83,8.1c0,5.28-3.43,8.46-9.29,8.46a37.7,37.7,0,0,1-8.32-1.24c-2.77-.7-3.75-0.88-6.69-1.41C43.37,19.79,46.64,17,50.39,17M32.45,35.81C47.12,43,50.22,45.67,50.22,51c0,4.93-3.26,8.46-7.67,8.46-5.54,0-8.15-4.58-9.29-16.21Zm-5.87-15c-0.66-1.23-1.14-2.47-1.8-3.52-2-4-2.44-5.81-2.44-8.28,0-4.58,3.58-8.46,7.83-8.46,3.91,0,7.5,3.7,7.5,7.93,0,3.35-1.14,6.52-4.4,12.68-1,2.11-1,2.11-3.26,6.52-1.47-2.82-2-3.7-3.42-6.87m-1.3,30.65c-1,4.76-4.08,7.75-8.16,7.75-4.4,0-7.66-3.69-7.66-8.46,0-5.11,2.61-7.39,15.16-13.56,0.33-.17,1.47-0.7,2.94-1.41-0.49,4.93-1.63,13-2.28,15.68M10.59,33.34a8.45,8.45,0,0,1-8.81-8.8c0-4.23,3.59-7.93,7.5-7.93s6.36,1.94,14.51,11.62c0.33,0.36,1.15,1.23,2.28,2.65-5.55,1.05-13.7,2.46-15.49,2.46" />
    </g>
</svg>
