<svg version="1.1" xmlns="http://www.w3.org/2000/svg" xmlns:xlink="http://www.w3.org/1999/xlink" viewBox="0 0 32 32">
    <title>Snapchat</title>
    <g>
        <path d="M16.2,29c-0.1,0-0.1,0-0.2,0h0c0,0-0.1,0-0.1,0c-1.6,0-2.7-0.7-3.7-1.5c-0.7-0.5-1.4-1-2.1-1.1c-0.4-0.1-0.8-0.1-1.1-0.1
    c-0.7,0-1.2,0.1-1.6,0.2c-0.2,0-0.4,0.1-0.6,0.1c-0.2,0-0.3,0-0.4-0.3c-0.1-0.2-0.1-0.4-0.2-0.6c-0.1-0.5-0.2-0.9-0.4-0.9
    c-2.6-0.4-3.3-0.9-3.5-1.3c0-0.1,0-0.1,0-0.2c0-0.1,0.1-0.3,0.2-0.3c4-0.7,5.8-4.7,5.9-4.9c0,0,0,0,0,0c0.2-0.5,0.3-0.9,0.1-1.3
    c-0.3-0.6-1.2-0.9-1.8-1.1c-0.1,0-0.3-0.1-0.4-0.1C5.1,15,5,14.6,5,14.3c0.1-0.4,0.6-0.7,1.1-0.7c0.1,0,0.2,0,0.3,0.1
    C7,13.9,7.5,14,7.9,14c0.6,0,0.8-0.2,0.9-0.3c0-0.3,0-0.6-0.1-0.8C8.6,11,8.4,8.7,9,7.4c1.8-4,5.6-4.3,6.7-4.3c0,0,0.5,0,0.5,0
    l0.1,0c1.1,0,4.9,0.3,6.7,4.3c0.6,1.3,0.4,3.7,0.3,5.6l0,0.1c0,0.3,0,0.5,0,0.8c0,0,0.3,0.2,0.8,0.3h0c0.4,0,0.8-0.1,1.3-0.4
    c0.1-0.1,0.3-0.1,0.4-0.1c0.2,0,0.3,0,0.5,0.1l0,0c0.4,0.1,0.7,0.4,0.7,0.7c0,0.3-0.2,0.7-1.2,1.1c-0.1,0-0.2,0.1-0.4,0.1
    c-0.6,0.2-1.5,0.5-1.8,1.1c-0.1,0.4-0.1,0.8,0.1,1.3c0,0,0,0,0,0c0.1,0.2,1.9,4.3,5.9,4.9c0.1,0,0.3,0.2,0.2,0.3c0,0.1,0,0.1,0,0.2
    c-0.2,0.4-0.9,0.9-3.5,1.3c-0.2,0-0.3,0.3-0.4,0.9c0,0.2-0.1,0.4-0.2,0.6c-0.1,0.2-0.2,0.3-0.4,0.3h0c-0.1,0-0.3,0-0.6-0.1
    c-0.4-0.1-0.9-0.2-1.6-0.2c-0.4,0-0.7,0-1.1,0.1c-0.8,0.1-1.4,0.6-2.1,1.1C18.9,28.2,17.8,29,16.2,29z"/>
    </g>
</svg>

