<svg version="1.1" xmlns="http://www.w3.org/2000/svg" xmlns:xlink="http://www.w3.org/1999/xlink" viewBox="0 0 140.3218 65.5074">
    <title>Wit & Delight</title>
    <g>
        <path d="M9.7858,6.0645a1.6245,1.6245,0,0,1,1.576,1.631A1.6438,1.6438,0,0,1,9.49,9.3987a7.592,7.592,0,0,1-1.6745-.2492C7.2575,9.0079,7.06,8.9717,6.4679,8.8663,8.3732,6.6322,9.0305,6.0645,9.7858,6.0645M6.1736,9.8587c2.9549,1.454,3.5792,1.9856,3.5792,3.05a1.5759,1.5759,0,0,1-1.5435,1.7025c-1.1163,0-1.6415-.9224-1.871-3.2634ZM4.9917,6.8446c-0.1322-.2477-0.23-0.497-0.3623-0.7093A3.4546,3.4546,0,0,1,4.138,4.4681a1.6652,1.6652,0,0,1,1.576-1.7025,1.6068,1.6068,0,0,1,1.51,1.5963,5.4542,5.4542,0,0,1-.8856,2.5534c-0.1977.4254-.1977,0.4254-0.6573,1.3124C5.3846,7.66,5.2867,7.4823,4.9917,6.8446M4.7292,13.0152a1.7275,1.7275,0,0,1-1.6427,1.56,1.5954,1.5954,0,0,1-1.5429-1.7025c0-1.0286.5257-1.4887,3.0534-2.7311C4.6637,10.1072,4.8926,10,5.1882,9.8587c-0.0979.9932-.3287,2.6242-0.459,3.1565M1.7731,9.3618A1.7006,1.7006,0,0,1,0,7.5892,1.6073,1.6073,0,0,1,1.51,5.9929c0.7883,0,1.28.39,2.9224,2.34,0.0655,0.0723.2308,0.2485,0.46,0.5331-1.117.2124-2.7578,0.4955-3.12,0.4955"/>
        <path d="M35.3669,12.1285L33.43,7.1988C32.28,4.3977,31.6892,3.76,30.2442,3.5814V3.2268H42.1317V3.5814a1.902,1.902,0,0,0-1.7731,2.0564,9.7834,9.7834,0,0,0,.6891,2.6964l4.1055,10.532,0.8207-1.8087c1.7076-3.7589,2.5944-6.9862,2.5944-9.3973,0-2.4833-.7228-3.6173-2.562-4.0789V3.2268h8.21V3.5814C52.639,4.0777,51.3923,5.674,49.75,9.326L41.7051,28.0519l-6.1411-15.32-7.0267,15.32L20.721,9.2552c-1.8385-4.0428-2.8233-5.1775-4.8265-5.6737V3.2268H27.9454V3.5814a1.7809,1.7809,0,0,0-1.3465,1.7733,3.3894,3.3894,0,0,0,.3287,1.3478L32.05,19.3979Z"/>
        <path d="M62.5591,3.83a3.5068,3.5068,0,1,1-6.9949-.0708,3.5092,3.5092,0,1,1,6.9949.0708M53.6919,11.419a72.0705,72.0705,0,0,0,8.6694-2.73V22.3425c0,3.5812.2632,4.0782,2.398,4.1843v0.3547H54.12V26.5269c2.1666-.1062,2.43-0.567,2.43-4.1843V16.5257c0-2.1279-.1316-2.9434-0.6567-3.7242a2.4523,2.4523,0,0,0-2.1672-1.0271Z"/>
        <path d="M77.5329,9.1491l-0.8207,1.6664H73.3956V21.03c0,2.6949.7877,3.76,2.7254,3.76a4.9826,4.9826,0,0,0,1.8722-.3908L78.19,24.6832c-2.43,1.9148-4.0731,2.6588-5.8786,2.6588a4.9582,4.9582,0,0,1-3.25-1.1347c-1.0839-.9917-1.4781-2.2341-1.4781-4.7867V10.8155H63.5443a24.6329,24.6329,0,0,0,9.8513-8.8649V9.1491h4.1373Z"/>
        <path d="M102.1356,9.1139c0-3.5458-1.1831-5.8861-2.9892-5.8861A1.9124,1.9124,0,0,0,97.341,5.3543c0,1.8087,1.6751,5.4975,3.7425,8.2986a9.0028,9.0028,0,0,0,1.0521-4.539M90.74,13.9375a12.1738,12.1738,0,0,0,1.8055,6.1353,6.2086,6.2086,0,0,0,5.2555,3.1558,4.6248,4.6248,0,0,0,2.3306-.5677,39.6708,39.6708,0,0,1-4.9581-6.5954,14.6371,14.6371,0,0,1-2.6923-7.1646A6.6675,6.6675,0,0,0,90.74,13.9375m22.7241,7.9794c-1.7406,3.5458-3.8093,5.4253-5.9441,5.4253-2.4622,0-4.3993-1.1709-6.9943-4.1843a10.2809,10.2809,0,0,1-2.1017,2.5534,7.4985,7.4985,0,0,1-4.63,1.631c-4.4329,0-7.9466-3.8651-7.9466-8.7587,0-4.1143,2.3637-7.6962,6.6663-10.1434A5.4824,5.4824,0,0,1,94.22,4.5749a6.5878,6.5878,0,0,1,4.5321-1.8094,4.8714,4.8714,0,0,1,5.09,5.0013c0,1.7733-.8868,3.9-2.562,6.2061l2.6936,3.475c0.7222-2.27,1.4444-4.5744,1.8061-5.4968,0.8862-2.3418,1.97-3.3689,3.5785-3.3689,1.6751,0,2.8906,1.4186,2.8906,3.44,0,1.7025-.9529,3.0142-2.2333,3.0142a2.6374,2.6374,0,0,1-2.0369-1.2055,1.5311,1.5311,0,0,0-1.1157-.6739c-0.7552,0-1.2143.8162-2.5613,4.6105,2.2651,3.1211,4.9587,5.1421,6.8633,5.1421a2.379,2.379,0,0,0,2.0038-1.0994Z"/>
        <path d="M30.0882,53.9811c0,2.4465.0992,3.2612,0.3941,3.795a2.2616,2.2616,0,0,0,2.0693.9224c3.6777,0,5.1227-3.228,5.1227-11.4566,0-4.5744-.4921-7.27-1.6421-9.2557-0.8862-1.454-2.3973-2.0925-5.056-2.0925H30.0882V53.9811Zm-9.522,4.7875c1.4774-.1416,2.0356-0.3547,2.4622-0.9924,0.5264-.7454.5918-1.3832,0.5918-4.7528v-11.49c0-3.3335-.0655-3.9727-0.5918-4.7182-0.4266-.6371-0.9848-0.8494-2.4622-0.9917V35.4683H31.9934c4.0718,0,7.1914,1.17,9.4577,3.5819a11.9026,11.9026,0,0,1,3.12,8.37c0,6.7031-4.8277,11.7036-11.2969,11.7036H20.5662V58.7686Z"/>
        <path d="M57.3451,48.1288a24.6377,24.6377,0,0,0-.23-4.29c-0.2956-1.7032-.9193-2.4479-2.0356-2.4479-1.7731,0-2.7915,2.4118-2.7915,6.7377h5.0572Zm-5.0242.4262c0.033,4.4328,1.8385,6.5961,5.4832,6.5961a5.6272,5.6272,0,0,0,5.2225-3.085l0.2944,0.1416a13.3378,13.3378,0,0,1-2.1666,4.2913,7.7177,7.7177,0,0,1-6.2727,3.0857c-4.925,0-8.6688-3.9366-8.6688-9.0787,0-5.3552,3.9409-9.5764,8.9326-9.5764A7.8327,7.8327,0,0,1,61.68,44.2637a8.4265,8.4265,0,0,1,1.51,4.2913H52.3209Z"/>
        <path d="M63.487,34.902a76.7981,76.7981,0,0,0,8.6694-2.4833V54.5842c0,3.5819.2632,4.0782,2.3967,4.1843v0.3554h-10.64V58.7685c2.1672-.1062,2.43-0.5663,2.43-4.1843V40.008c0-2.1287-.131-2.9434-0.6567-3.6881a2.3052,2.3052,0,0,0-2.1672-1.0293Z"/>
        <path d="M84.2478,36.0717a3.5092,3.5092,0,1,1-3.5137-3.83,3.643,3.643,0,0,1,3.5137,3.83M75.3813,43.661a71.9739,71.9739,0,0,0,8.6694-2.73V54.5838c0,3.5819.2632,4.0789,2.3967,4.1851v0.3547h-10.64V58.7688c2.1678-.1062,2.431-0.5663,2.431-4.1851V48.767c0-2.1272-.1316-2.9427-0.6573-3.722a2.4473,2.4473,0,0,0-2.1672-1.0286Z"/>
        <path d="M93.3626,45.5759c0,3.37.6891,4.8936,2.2,4.8936,1.4444,0,2.0362-1.2055,2.0362-4.219,0-3.2642-.7234-4.86-2.2009-4.86-1.4113,0-2.0356,1.2771-2.0356,4.1851M90.7014,60.8253c0,2.3764,2.4316,4.0435,5.9122,4.0435,2.9212,0,4.9581-1.3832,4.9581-3.37,0-1.6664-1.3471-2.5895-3.71-2.5895-0.3287,0-1.0833.0361-1.7731,0.0723-0.7565.0347-1.3471,0.0693-1.8061,0.0693a13.4387,13.4387,0,0,1-2.595-.2116,2.1816,2.1816,0,0,0-.986,1.9856M95.8254,40.93h0.7216a9.2588,9.2588,0,0,1,4.4011,1.4548,4.0628,4.0628,0,0,1,2.0032,3.3335c0,2.908-3.3166,5.2129-7.52,5.2129a11.907,11.907,0,0,1-3.9078-.6739,1.5677,1.5677,0,0,0-.7228,1.3478c0,1.4179,1.0184,1.9156,3.843,1.9156,0.4921,0,1.2473-.0361,2.2321-0.1076,0.8207-.0339,1.6427-0.07,2.2-0.07,3.513,0,6.0426,2.1272,6.0426,5.1421,0,3.972-4.5,7.0223-10.3115,7.0223-4.4984,0-7.2905-1.3478-7.2905-3.4758,0-1.3478,1.1831-2.4833,3.4158-3.3335C88.6,58.13,87.353,56.8895,87.353,55.08c0-1.8787,1.1824-3.44,3.8093-4.9644C89.0936,49.37,88.01,47.987,88.01,46.109c0-1.6324,1.1818-3.1572,3.2511-4.1858A9.4783,9.4783,0,0,1,95.463,40.93"/>
        <path d="M114.2806,44.4768c2.9885-2.6964,4.5658-3.5465,6.5677-3.5465a3.3428,3.3428,0,0,1,2.759,1.2055c0.6237,0.8516.8538,1.8448,0.8538,3.7589v9.398c-0.033,2.8726.1965,3.2988,1.97,3.4765v0.3554h-9.3274V58.7692c1.38-.1777,1.5772-0.6039,1.5435-3.4765V46.8179a3.8349,3.8349,0,0,0-.4266-2.3064,1.7916,1.7916,0,0,0-1.4438-.7794,4.0116,4.0116,0,0,0-2.4965,1.3132V55.2927a7.5271,7.5271,0,0,0,.1971,2.6256,1.3044,1.3044,0,0,0,1.314.8509v0.3554h-9.95V58.7692c2.3312-.1062,2.6281-0.5677,2.6281-4.1851V40.0079c0-2.1287-.1328-2.9434-0.658-3.6881a2.2818,2.2818,0,0,0-2.1341-1.0286l-0.0667-.3893a68.6043,68.6043,0,0,0,8.6694-2.4826V44.4768Z"/>
        <path d="M139.6658,41.3911l-0.8214,1.6664h-3.3166V53.2717c0,2.6957.7883,3.76,2.726,3.76a4.9815,4.9815,0,0,0,1.871-.3915l0.1971,0.2846c-2.43,1.9148-4.0718,2.66-5.8767,2.66a4.96,4.96,0,0,1-3.2524-1.1355c-1.0833-.9917-1.4774-2.2341-1.4774-4.7867V43.0575h-4.0388a24.6383,24.6383,0,0,0,9.8512-8.8649v7.1985h4.138Z"/>
        <path d="M95.4634,40.7962V40.1223c0-3.4042,1.5772-5.603,4.0394-5.603a2.8984,2.8984,0,0,1,2.9555,2.9434,2.5243,2.5243,0,0,1-2.2988,2.73A2.4855,2.4855,0,0,1,98.1906,39.13c-0.658-.7447-0.8875-0.9217-1.2492-0.9217-0.7883,0-1.1157.6732-1.1157,2.2695v0.3185"/>
    </g>
</svg>