<svg version="1.1" xmlns="http://www.w3.org/2000/svg" xmlns:xlink="http://www.w3.org/1999/xlink" viewBox="0 0 140.32 65.51">
    <title>Wit & Delight</title>
    <g>
        <path class="cls-1" d="M9.79,7.31a1.62,1.62,0,0,1,1.58,1.63,1.64,1.64,0,0,1-1.87,1.7,7.59,7.59,0,0,1-1.67-.25c-0.56-.14-0.76-0.18-1.35-0.28C8.37,7.88,9,7.31,9.79,7.31M6.17,11.11c3,1.45,3.58,2,3.58,3.05a1.58,1.58,0,0,1-1.54,1.7c-1.12,0-1.64-.92-1.87-3.26ZM5,8.09c-0.13-.25-0.23-0.5-0.36-0.71a3.45,3.45,0,0,1-.49-1.67A1.67,1.67,0,0,1,5.71,4a1.61,1.61,0,0,1,1.51,1.6,5.45,5.45,0,0,1-.89,2.55c-0.2.43-.2,0.43-0.66,1.31C5.38,8.91,5.29,8.73,5,8.09M4.73,14.26a1.73,1.73,0,0,1-1.64,1.56,1.6,1.6,0,0,1-1.54-1.7c0-1,.53-1.49,3.05-2.73l0.59-.28c-0.1,1-.33,2.62-0.46,3.16m-3-3.65A1.7,1.7,0,0,1,0,8.84a1.61,1.61,0,0,1,1.51-1.6c0.79,0,1.28.39,2.92,2.34,0.07,0.07.23,0.25,0.46,0.53-1.12.21-2.76,0.5-3.12,0.5" transform="translate(0 -1.25)"/>
        <path class="cls-1" d="M35.37,13.37L33.43,8.45C32.28,5.64,31.69,5,30.24,4.83V4.47H42.13V4.83a1.9,1.9,0,0,0-1.77,2.06A9.78,9.78,0,0,0,41,9.58l4.11,10.53L46,18.3c1.71-3.76,2.59-7,2.59-9.4S47.85,5.29,46,4.83V4.47h8.21V4.83c-1.58.5-2.82,2.09-4.47,5.74l-8,18.73L35.56,14l-7,15.32L20.72,10.5c-1.84-4-2.82-5.18-4.83-5.67V4.47H27.95V4.83A1.78,1.78,0,0,0,26.6,6.6a3.39,3.39,0,0,0,.33,1.35l5.12,12.7Z" transform="translate(0 -1.25)"/>
        <path class="cls-1" d="M62.56,5.08a3.51,3.51,0,1,1-7-.07,3.51,3.51,0,1,1,7,.07m-8.87,7.59a72.07,72.07,0,0,0,8.67-2.73V23.59c0,3.58.26,4.08,2.4,4.18v0.35H54.12V27.77c2.17-.11,2.43-0.57,2.43-4.18V17.77c0-2.13-.13-2.94-0.66-3.72a2.45,2.45,0,0,0-2.17-1Z" transform="translate(0 -1.25)"/>
        <path class="cls-1" d="M77.53,10.4l-0.82,1.67H73.4V22.28c0,2.69.79,3.76,2.73,3.76A5,5,0,0,0,78,25.64l0.2,0.28c-2.43,1.91-4.07,2.66-5.88,2.66a5,5,0,0,1-3.25-1.13c-1.08-1-1.48-2.23-1.48-4.79V12.06h-4A24.63,24.63,0,0,0,73.4,3.2v7.2h4.14Z" transform="translate(0 -1.25)"/>
        <path class="cls-1" d="M102.14,10.36c0-3.55-1.18-5.89-3-5.89A1.91,1.91,0,0,0,97.34,6.6c0,1.81,1.68,5.5,3.74,8.3a9,9,0,0,0,1.05-4.54m-11.4,4.82a12.17,12.17,0,0,0,1.81,6.14,6.21,6.21,0,0,0,5.26,3.16,4.62,4.62,0,0,0,2.33-.57,39.67,39.67,0,0,1-5-6.6,14.64,14.64,0,0,1-2.69-7.16,6.67,6.67,0,0,0-1.74,5m22.72,8c-1.74,3.55-3.81,5.43-5.94,5.43-2.46,0-4.4-1.17-7-4.18A10.28,10.28,0,0,1,98.42,27a7.5,7.5,0,0,1-4.63,1.63c-4.43,0-7.95-3.87-7.95-8.76,0-4.11,2.36-7.7,6.67-10.14a5.48,5.48,0,0,1,1.71-3.87A6.59,6.59,0,0,1,98.75,4a4.87,4.87,0,0,1,5.09,5c0,1.77-.89,3.9-2.56,6.21L104,18.69c0.72-2.27,1.44-4.57,1.81-5.5,0.89-2.34,2-3.37,3.58-3.37s2.89,1.42,2.89,3.44c0,1.7-1,3-2.23,3a2.64,2.64,0,0,1-2-1.21,1.53,1.53,0,0,0-1.12-.67c-0.76,0-1.21.82-2.56,4.61,2.27,3.12,5,5.14,6.86,5.14a2.38,2.38,0,0,0,2-1.1Z" transform="translate(0 -1.25)"/>
        <path class="cls-1" d="M30.09,55.23c0,2.45.1,3.26,0.39,3.8a2.26,2.26,0,0,0,2.07.92c3.68,0,5.12-3.23,5.12-11.46,0-4.57-.49-7.27-1.64-9.26-0.89-1.45-2.4-2.09-5.06-2.09H30.09V55.23ZM20.57,60c1.48-.14,2-0.35,2.46-1s0.59-1.38.59-4.75V42.78c0-3.33-.07-4-0.59-4.72s-1-.85-2.46-1V36.71H32c4.07,0,7.19,1.17,9.46,3.58a11.9,11.9,0,0,1,3.12,8.37c0,6.7-4.83,11.7-11.3,11.7H20.57V60Z" transform="translate(0 -1.25)"/>
        <path class="cls-1" d="M57.35,49.38a24.64,24.64,0,0,0-.23-4.29c-0.3-1.7-.92-2.45-2-2.45-1.77,0-2.79,2.41-2.79,6.74h5.06Zm-5,.43c0,4.43,1.84,6.6,5.48,6.6A5.63,5.63,0,0,0,63,53.31l0.29,0.14a13.34,13.34,0,0,1-2.17,4.29,7.72,7.72,0,0,1-6.27,3.09c-4.92,0-8.67-3.94-8.67-9.08,0-5.36,3.94-9.58,8.93-9.58a7.83,7.83,0,0,1,6.53,3.33,8.43,8.43,0,0,1,1.51,4.29H52.32Z" transform="translate(0 -1.25)"/>
        <path class="cls-1" d="M63.49,36.15a76.8,76.8,0,0,0,8.67-2.48V55.83c0,3.58.26,4.08,2.4,4.18v0.36H63.91V60c2.17-.11,2.43-0.57,2.43-4.18V41.25c0-2.13-.13-2.94-0.66-3.69a2.31,2.31,0,0,0-2.17-1Z" transform="translate(0 -1.25)"/>
        <path class="cls-1" d="M84.25,37.32a3.51,3.51,0,1,1-3.51-3.83,3.64,3.64,0,0,1,3.51,3.83m-8.87,7.59a72,72,0,0,0,8.67-2.73V55.83c0,3.58.26,4.08,2.4,4.19v0.35H75.81V60c2.17-.11,2.43-0.57,2.43-4.19V50c0-2.13-.13-2.94-0.66-3.72a2.45,2.45,0,0,0-2.17-1Z" transform="translate(0 -1.25)"/>
        <path class="cls-1" d="M93.36,46.82c0,3.37.69,4.89,2.2,4.89s2-1.21,2-4.22c0-3.26-.72-4.86-2.2-4.86s-2,1.28-2,4.19M90.7,62.07c0,2.38,2.43,4,5.91,4,2.92,0,5-1.38,5-3.37,0-1.67-1.35-2.59-3.71-2.59-0.33,0-1.08,0-1.77.07s-1.35.07-1.81,0.07a13.44,13.44,0,0,1-2.6-.21,2.18,2.18,0,0,0-1,2m5.12-19.9h0.72a9.26,9.26,0,0,1,4.4,1.45A4.06,4.06,0,0,1,103,47c0,2.91-3.32,5.21-7.52,5.21a11.91,11.91,0,0,1-3.91-.67,1.57,1.57,0,0,0-.72,1.35c0,1.42,1,1.92,3.84,1.92,0.49,0,1.25,0,2.23-.11,0.82,0,1.64-.07,2.2-0.07,3.51,0,6,2.13,6,5.14,0,4-4.5,7-10.31,7-4.5,0-7.29-1.35-7.29-3.48,0-1.35,1.18-2.48,3.42-3.33-2.33-.57-3.58-1.81-3.58-3.62s1.18-3.44,3.81-5c-2.07-.75-3.15-2.13-3.15-4,0-1.63,1.18-3.16,3.25-4.19a9.48,9.48,0,0,1,4.2-1" transform="translate(0 -1.25)"/>
        <path class="cls-1" d="M114.28,45.72c3-2.7,4.57-3.55,6.57-3.55a3.34,3.34,0,0,1,2.76,1.21c0.62,0.85.85,1.84,0.85,3.76v9.4c0,2.87.2,3.3,2,3.48v0.36H117.1V60c1.38-.18,1.58-0.6,1.54-3.48V48.06a3.83,3.83,0,0,0-.43-2.31,1.79,1.79,0,0,0-1.44-.78,4,4,0,0,0-2.5,1.31V56.54a7.53,7.53,0,0,0,.2,2.63,1.3,1.3,0,0,0,1.31.85v0.36h-9.95V60c2.33-.11,2.63-0.57,2.63-4.19V41.25c0-2.13-.13-2.94-0.66-3.69a2.28,2.28,0,0,0-2.13-1l-0.07-.39a68.6,68.6,0,0,0,8.67-2.48V45.72Z" transform="translate(0 -1.25)"/>
        <path class="cls-1" d="M139.67,42.64l-0.82,1.67h-3.32V54.52c0,2.7.79,3.76,2.73,3.76a5,5,0,0,0,1.87-.39l0.2,0.28c-2.43,1.91-4.07,2.66-5.88,2.66a5,5,0,0,1-3.25-1.14c-1.08-1-1.48-2.23-1.48-4.79V44.3h-4a24.64,24.64,0,0,0,9.85-8.86v7.2h4.14Z" transform="translate(0 -1.25)"/>
        <path class="cls-1" d="M95.46,42V41.37c0-3.4,1.58-5.6,4-5.6a2.9,2.9,0,0,1,3,2.94,2.52,2.52,0,0,1-2.3,2.73,2.49,2.49,0,0,1-2-1.06c-0.66-.74-0.89-0.92-1.25-0.92-0.79,0-1.12.67-1.12,2.27V42" transform="translate(0 -1.25)"/>
    </g>
</svg>
