<svg version="1.1" xmlns="http://www.w3.org/2000/svg" xmlns:xlink="http://www.w3.org/1999/xlink" viewBox="0 0 1193.52 166.41">
    <g>
        <path d="M48.6,31.26a8.07,8.07,0,0,1,7.83,8.1c0,5.28-3.43,8.46-9.29,8.46a37.7,37.7,0,0,1-8.32-1.24c-2.77-.7-3.75-0.88-6.69-1.41,9.46-11.1,12.73-13.91,16.48-13.91M30.66,50.11C45.33,57.33,48.43,60,48.43,65.26c0,4.93-3.26,8.46-7.67,8.46-5.54,0-8.15-4.58-9.29-16.21Zm-5.87-15c-0.66-1.23-1.14-2.47-1.8-3.52-2-4-2.44-5.81-2.44-8.28,0-4.58,3.58-8.46,7.83-8.46,3.91,0,7.5,3.7,7.5,7.93,0,3.35-1.14,6.52-4.4,12.68-1,2.11-1,2.11-3.26,6.52-1.47-2.82-2-3.7-3.42-6.87m-1.3,30.65c-1,4.76-4.08,7.75-8.16,7.75-4.4,0-7.66-3.69-7.66-8.46,0-5.11,2.61-7.39,15.16-13.56,0.33-.17,1.47-0.7,2.94-1.41-0.49,4.93-1.63,13-2.28,15.68M8.8,47.64A8.45,8.45,0,0,1,0,38.83c0-4.23,3.59-7.93,7.5-7.93S13.86,32.84,22,42.53c0.33,0.36,1.15,1.23,2.28,2.65-5.55,1.05-13.7,2.46-15.49,2.46" transform="translate(0 -1.14)" style="fill: #010101"/>
        <path d="M175.64,61.38L166,36.9c-5.71-13.91-8.64-17.08-15.82-18V17.17h59v1.76c-5.87,1.06-8.81,4.4-8.81,10.21,0,2.64,1.47,8.28,3.42,13.39l20.39,52.31,4.08-9c8.48-18.67,12.88-34.7,12.88-46.67,0-12.33-3.59-18-12.72-20.26V17.17h40.77v1.76c-7.83,2.46-14,10.39-22.18,28.53l-40,93-30.5-76.09-34.9,76.09L102.9,47.11c-9.13-20.08-14-25.71-24-28.18V17.17h59.85v1.76c-4.73,1.94-6.69,4.58-6.69,8.81a16.83,16.83,0,0,0,1.63,6.69l25.44,63Z" transform="translate(0 -1.14)" style="fill: #010101"/>
        <path d="M310.69,20.16c0,10-7.83,18.5-17.29,18.5-9.63,0-17.45-8.46-17.45-18.85,0-10.22,7.83-18.67,17.29-18.67,9.79,0,17.45,8.28,17.45,19m-44,37.69c15-3.7,33.76-9.69,43.06-13.56V112.1c0,17.79,1.31,20.25,11.91,20.78v1.76H268.77v-1.76c10.76-.53,12.07-2.82,12.07-20.78V83.22c0-10.57-.65-14.62-3.26-18.5-2.28-3.34-5.22-4.75-10.76-5.1Z" transform="translate(0 -1.14)" style="fill: #010101"/>
        <path d="M385.05,46.58L381,54.86H364.5v50.73c0,13.38,3.91,18.67,13.54,18.67,3.1,0,5.38-.53,9.3-1.94l1,1.41c-12.07,9.51-20.23,13.2-29.2,13.2A24.62,24.62,0,0,1,343,131.3c-5.38-4.93-7.34-11.1-7.34-23.77V54.86H315.58c19.08-9,37.84-26.06,48.92-44V46.58h20.55Z" transform="translate(0 -1.14)" style="fill: #010101"/>
        <path d="M507.24,46.41c0-17.61-5.88-29.23-14.85-29.23-5.22,0-9,4.4-9,10.56,0,9,8.32,27.3,18.59,41.21,3.59-6.69,5.23-13.39,5.23-22.54m-56.6,24a60.46,60.46,0,0,0,9,30.47c6.2,10,15.83,15.67,26.1,15.67a23,23,0,0,0,11.57-2.82c-5.22-4.75-13.21-15.32-24.62-32.76C463.85,67,460.1,57,459.29,45.35c-6,6.16-8.65,13.92-8.65,25M563.5,110c-8.64,17.61-18.92,26.94-29.52,26.94-12.23,0-21.85-5.81-34.74-20.78-4.4,6.69-6.68,9.51-10.44,12.68a37.24,37.24,0,0,1-23,8.1c-22,0-39.47-19.2-39.47-43.5,0-20.43,11.74-38.22,33.11-50.38,1-9.15,3.1-13.91,8.48-19.2a32.72,32.72,0,0,1,22.51-9c14.68,0,25.28,10.4,25.28,24.84,0,8.81-4.4,19.37-12.72,30.82L516.37,87.8c3.59-11.27,7.17-22.72,9-27.3,4.4-11.63,9.78-16.73,17.77-16.73,8.32,0,14.36,7,14.36,17.08,0,8.46-4.73,15-11.09,15-3.58,0-6.2-1.58-10.12-6-2.28-2.46-3.74-3.35-5.54-3.35-3.75,0-6,4.05-12.72,22.9,11.25,15.5,24.63,25.54,34.09,25.54a11.81,11.81,0,0,0,10-5.46Z" transform="translate(0 -1.14)" style="fill: #010101"/>
        <path d="M646.06,110.31c0,12.15.49,16.2,2,18.85,1.47,2.82,5.39,4.58,10.28,4.58,18.26,0,25.44-16,25.44-56.9,0-22.72-2.44-36.11-8.16-46-4.4-7.22-11.91-10.39-25.11-10.39h-4.41v89.83Zm-47.29,23.78c7.34-.7,10.11-1.76,12.23-4.93,2.61-3.7,2.94-6.87,2.94-23.6V48.49c0-16.56-.33-19.73-2.94-23.43-2.12-3.16-4.89-4.22-12.23-4.93V18.37h56.75c20.22,0,35.71,5.81,47,17.79C712.6,46.73,718,61.34,718,77.73c0,33.29-24,58.12-56.1,58.12H598.77v-1.77Z" transform="translate(0 -1.14)" style="fill: #010101"/>
        <path d="M781.43,81.25c0-11.27-.33-16.73-1.14-21.3-1.47-8.46-4.57-12.16-10.11-12.16-8.81,0-13.86,12-13.86,33.46h25.12Zm-25,2.12c0.16,22,9.13,32.76,27.23,32.76,11.58,0,19.25-4.58,25.94-15.32l1.46,0.7c-3.59,10.39-6.19,15.32-10.76,21.31a38.33,38.33,0,0,1-31.15,15.32c-24.46,0-43.05-19.55-43.05-45.09,0-26.6,19.57-47.56,44.36-47.56,13.2,0,25.11,6,32.45,16.56,4.4,6.34,6.36,11.8,7.5,21.31h-54Z" transform="translate(0 -1.14)" style="fill: #010101"/>
        <path d="M811.93,15.56c15-3.35,33.76-8.81,43.06-12.33V113.31c0,17.79,1.31,20.25,11.9,20.78v1.77H814v-1.77c10.76-.53,12.07-2.81,12.07-20.78V40.91c0-10.57-.65-14.62-3.26-18.32-2.28-3.52-5.22-4.93-10.76-5.11Z" transform="translate(0 -1.14)" style="fill: #010101"/>
        <path d="M915,21.37c0,10-7.83,18.49-17.28,18.49-9.63,0-17.46-8.45-17.46-18.85,0-10.22,7.83-18.66,17.29-18.66,9.79,0,17.45,8.28,17.45,19M871,59.06c15-3.69,33.76-9.69,43.06-13.56V113.3c0,17.79,1.31,20.26,11.9,20.78v1.76H873.12v-1.76c10.77-.53,12.07-2.81,12.07-20.78V84.41c0-10.56-.65-14.61-3.26-18.48-2.28-3.35-5.22-4.76-10.76-5.11Z" transform="translate(0 -1.14)" style="fill: #010101"/>
        <path d="M960.3,68.57c0,16.73,3.42,24.3,10.93,24.3,7.17,0,10.11-6,10.11-21,0-16.21-3.59-24.14-10.93-24.14-7,0-10.11,6.34-10.11,20.78M947.09,144.3c0,11.8,12.08,20.08,29.36,20.08,14.51,0,24.62-6.87,24.62-16.73,0-8.28-6.69-12.86-18.43-12.86-1.63,0-5.38.18-8.81,0.36-3.76.17-6.69,0.34-9,.34A66.74,66.74,0,0,1,952,134.44c-3.42,2.46-4.9,5.28-4.9,9.86m25.45-98.81h3.58c6.85,0.18,15.17,3,21.86,7.22,6.36,4.23,9.95,10.21,9.95,16.56,0,14.44-16.47,25.89-37.35,25.89a59.13,59.13,0,0,1-19.41-3.35c-2.78,2.29-3.59,4-3.59,6.69,0,7,5.06,9.51,19.09,9.51,2.44,0,6.19-.18,11.09-0.53,4.08-.17,8.16-0.35,10.93-0.35,17.45,0,30,10.56,30,25.54,0,19.73-22.35,34.88-51.21,34.88-22.34,0-36.21-6.69-36.21-17.26,0-6.69,5.88-12.33,17-16.56-11.58-2.82-17.78-9-17.78-18,0-9.33,5.87-17.08,18.92-24.66-10.27-3.7-15.66-10.57-15.66-19.9,0-8.11,5.87-15.68,16.15-20.79,6.2-3.17,11.58-4.4,20.87-4.93" transform="translate(0 -1.14)" style="fill: #010101"/>
        <path d="M1064.19,63.11c14.84-13.39,22.68-17.61,32.62-17.61,6,0,10.6,2.11,13.7,6,3.1,4.23,4.24,9.16,4.24,18.67v46.67c-0.16,14.27,1,16.38,9.78,17.27v1.76h-46.32v-1.76c6.85-.88,7.83-3,7.67-17.27V74.73c0-6.17-.49-9.17-2.12-11.45a8.9,8.9,0,0,0-7.17-3.87c-3.59,0-7.5,2.11-12.4,6.52v50.89c0,9,.16,10.75,1,13,1,2.64,2.77,3.87,6.53,4.23v1.76h-49.41v-1.76c11.58-.53,13.05-2.82,13.05-20.78V40.91c0-10.57-.66-14.62-3.27-18.32-2.28-3.53-5.22-4.93-10.6-5.11l-0.33-1.93a340.71,340.71,0,0,0,43.06-12.33V63.11Z" transform="translate(0 -1.14)" style="fill: #010101"/>
        <path d="M1190.26,47.78l-4.08,8.28h-16.47v50.73c0,13.39,3.91,18.67,13.54,18.67,3.09,0,5.38-.53,9.29-1.94l1,1.41c-12.07,9.51-20.22,13.21-29.19,13.21a24.63,24.63,0,0,1-16.15-5.64c-5.38-4.93-7.34-11.1-7.34-23.77V56.06h-20.06c19.08-9,37.84-26.06,48.92-44V47.78h20.55Z" transform="translate(0 -1.14)" style="fill: #010101"/>
        <path d="M970.74,44.83V41.48c0-16.91,7.83-27.83,20.06-27.83a14.39,14.39,0,0,1,14.68,14.62c0,7.57-5.05,13.56-11.42,13.56-3.58,0-6.35-1.41-9.78-5.28-3.27-3.7-4.41-4.58-6.2-4.58-3.91,0-5.54,3.34-5.54,11.27v1.58" transform="translate(0 -1.14)" style="fill: #010101"/>
    </g>
</svg>
